<?xml version="1.0" encoding="UTF-8"?>
<svg id="Layer_2" data-name="Layer 2" xmlns="http://www.w3.org/2000/svg" viewBox="0 0 223.98 223.98">
  <defs>
    <style>
      .cls-1 {
        fill: #211f1f;
      }
    </style>
  </defs>
  <g id="Layer_1-2" data-name="Layer 1">
    <path class="cls-1" d="M179.4,22.5C161.77,9.22,141.45,1.95,120.92,.34c-6.14-.48-12.3-.45-18.42,.07-1.94,.17-3.87,.38-5.8,.65-28.52,3.93-55.54,18.75-74.2,43.51C.54,73.73-4.98,110.22,4.35,142.88c1.68,5.9,3.86,11.66,6.5,17.24,7.5,15.82,18.81,30.11,33.73,41.35,14.93,11.24,31.78,18.17,49.05,21.01,1.02,.17,2.05,.3,3.08,.44,5.08,.69,10.19,1.05,15.29,1.05,33.96-.04,67.52-15.42,89.48-44.57,19.91-26.43,26.31-58.91,20.38-89.08-1.18-6.02-2.86-11.95-5.01-17.72-7.21-19.29-19.8-36.81-37.43-50.1ZM27.99,129.47c-4.85-23.37-.02-48.62,15.44-69.13,13.51-17.93,32.75-29.04,53.28-32.75,.92-.17,1.84-.34,2.76-.47-.78,3.12-1.71,6.28-2.76,9.46h0c-5.77,17.47-15.51,35.7-28.42,52.84-12.16,16.14-26.02,29.87-40.3,40.07Zm71.16,67.38c-.81-.12-1.63-.26-2.44-.4-12.81-2.3-25.28-7.54-36.37-15.9-11.79-8.88-20.64-20.24-26.37-32.81,17.04-11.29,34.02-27.32,49.04-47.26,5.07-6.72,9.62-13.54,13.7-20.37h0c10.94-18.32,18.3-36.73,21.84-53.7,15.83,1.19,31.51,6.77,45.1,17.01,13.59,10.24,23.28,23.77,28.79,38.66-21.06,11.1-42.74,29.83-61.39,54.6-15.02,19.94-25.75,40.68-31.89,60.17Zm81.41-33.21c-15.45,20.51-38.4,32.12-62.19,33.91,5.87-16.53,15.24-33.64,27.4-49.78,15.26-20.26,33.2-36.7,51.27-47.16,2.89,21.6-2.36,44.3-16.48,63.04Z"/>
  </g>
</svg>