<?xml version="1.0" encoding="UTF-8"?>
<svg id="Layer_2" data-name="Layer 2" xmlns="http://www.w3.org/2000/svg" viewBox="0 0 834.68 545.18">
  <defs>
    <style>
      .cls-1 {
        fill: #211f1f;
      }
    </style>
  </defs>
  <g id="Layer_1-2" data-name="Layer 1">
    <path class="cls-1" d="M492.38,382.38c1.06,12.48,4.96,25.25,10.59,36.42,2.79,5.53,6.92,12.26,12.24,16.4-1.19,6.52-1.62,13.15-.79,19.82,1.77,14.38,10.54,25.32,20.64,35.02,5.1,4.9,10.81,9.17,16.8,12.91,6.31,3.95,12.51,8.06,18.79,12.06,7.03,4.48,14.31,8.68,21.99,11.95,7.26,3.09,14.7,5.8,22.05,8.69,13.13,5.16,26.36,11.53,40.86,8.94,7.79-1.39,14.83-5.42,19.81-11.56,.03-.03,.05-.07,.08-.1,11,1.85,22.4,.47,33.51-.68,13.03-1.35,25.95-4.58,37.51-10.88,13.32-7.25,24.96-17.07,34.9-28.48,10.3-11.83,16.91-26.43,24.26-40.16,0,.03,.15-.16,.54-.79,.87-1.38,1.65-2.86,2.43-4.28,.84-1.54,1.62-3.1,2.38-4.69,.74-1.56,1.45-3.14,2.19-4.7,.37-.77,.75-1.54,1.14-2.3,.24-.4,.48-.81,.74-1.21,2.42-3.87,4.44-8.01,6.15-12.28,.6-1.21,1.12-2.45,1.51-3.71,.12-.39,.22-.79,.31-1.18,.66-1.94,1.27-3.89,1.82-5.84,4.17-14.71,8.96-29.72,9.74-45.08,.76-15.01-2.9-30.55-10.05-43.75-1.6-2.95-3.26-6.18-5.47-8.74-2.09-2.43-4.63-4.45-7.26-6.26-2.09-1.43-4.25-2.75-6.38-4.12-.99-.64-1.96-1.3-2.91-1.98-.43-.31-.84-.63-1.26-.96-.04-.03-.06-.05-.1-.07-2.09-8.37-4.78-17.06-9.08-24.55-5.66-9.85-13.51-18.29-22.03-25.74-7.79-6.81-16.46-12.56-25.45-17.64-6.67-3.77-13.47-7.26-20.46-10.41-5.58-2.52-11.61-4.16-17.47-5.91-12.38-3.69-24.93-6.89-37.55-9.63-4.52-.98-9.07-1.89-13.64-2.58-1.53-.23-3.07-.43-4.61-.55-1.39-.12-2.71-.06-4.12-.02-.07,0-.13,0-.21,0-.97,.02-1.94,.03-2.9,.05-6.79,.1-13.65,.12-20.36,1.29-3.49,.61-6.97,1.63-10.28,2.9-3.62,1.39-6.7,3.7-9.99,5.68-5.97,3.6-11.26,8.27-16.43,12.92-.34,.3-.68,.61-1.01,.91-.3,.02-.59,.05-.89,.09-.62,.1-1.8,.16-2.33,.19-1.31,.03-2.63,.07-3.94,.18-4.45,.39-8.87,1.84-13,3.46-5.85,2.29-11.7,5.39-16.93,8.87-4.47,2.97-8.25,7.16-11.81,11.1-2.97,3.29-5.8,6.76-8.46,10.35-.85-1.95-2.03-3.77-3.4-5.36-5.61-6.51-13.29-11.04-20.68-15.23-8.2-4.65-16.59-8.91-24.99-13.18-1.25-.64-2.5-1.28-3.74-1.93-.48-.28-1.12-.64-1.48-.86-5.14-3.17-10.17-6.95-15.98-8.8-4.67-1.49-9.28-1.7-13.67-.68-.35-.3-.7-.6-1.04-.9-.23-.2-.62-.57-.98-.92-.5-.51-1.01-1.03-1.51-1.55-1.67-1.76-3.27-3.58-4.85-5.42-5.33-6.21-10.14-12.88-15.63-18.95-4.72-5.21-9.89-10.07-14.83-15.06-6.09-6.14-12.24-12.23-18.43-18.28-11.07-10.81-22.29-21.49-33.55-32.1-11.22-10.58-22.68-20.92-34.79-30.49-9.26-7.31-18.99-14.02-28.83-20.51-19.24-12.7-39.24-24.29-59.83-34.66-20.1-10.12-40.91-18.94-62.43-25.56C147.14,5.01,125.84,.4,104.38,.03c-19.77-.34-39.91,2.65-57.67,11.72C25.94,22.35,9.72,40.74,3.38,63.36c-6.21,22.16-3.97,46.58,7.68,66.63,7.28,12.53,17.43,22.74,28.35,32.18,11.57,10,24.46,18.17,37.9,25.4,25.91,13.93,54.32,22.51,82.79,29.44,25.96,6.32,52.39,10.41,78.76,14.6,14.88,2.36,29.75,4.77,44.57,7.44,7.66,1.38,15.29,2.89,22.9,4.51,3.6,.77,7.19,1.57,10.78,2.39,1.78,.41,3.57,.83,5.35,1.25,.89,.21,1.78,.43,2.66,.64,.08,.02,.13,.03,.2,.05,.4,.1,.8,.2,1.2,.3,27.55,6.86,54.59,15.58,81.1,25.7,.18,1.02,.41,2.05,.74,3.11,1.56,4.93,6.15,8.98,11,10.51,3.05,1.45,6.06,2.98,9.04,4.57,1.44,.77,2.87,1.55,4.3,2.34,.08,.04,.14,.08,.24,.13,.91,.51,1.82,1.03,2.73,1.54,2.4,1.36,4.79,2.75,7.18,4.12,.95,.54,1.9,1.08,2.85,1.61-1.17-.65,3.89,2.21,3.2,1.81,.59,.34,1.19,.68,1.78,1.01,6.67,3.81,13.31,7.66,19.95,11.52,3.8,2.21,7.51,4.43,11.62,6.04,2.3,.91,4.98,1.88,7.64,2.22,2.53,1.65,4.96,3.45,7.43,5.2-.41,1.73-.77,3.47-1.07,5.2-.79,4.61-1.42,9.25-2.05,13.88-1.53,11.19-2.79,22.37-1.83,33.68Zm30.15,23.36c-1.25-2.82-2.35-5.71-3.35-8.62-.27-.79-.52-1.58-.77-2.37-.05-.15-.09-.28-.12-.38-.53-1.87-.97-3.76-1.38-5.66-.71-3.27-1.19-6.58-1.51-9.91-.08-.83-.13-1.66-.18-2.48,0-.15-.02-.45-.03-.76,0-.43,0-.86,.02-1.29,4.5,5.79,9.82,10.99,15.61,15.47-2.44,6.08-4.9,12.16-7.23,18.28-.36-.75-.71-1.51-1.05-2.28Zm46.27-44.59s-.03,.05-.05,.07c-.29,.28-.66,.64-1.17,1.12,.42-.4,.82-.79,1.22-1.19Zm-30.04,74.58c-.57,2.44-.21,.83,0,0h0Zm-1.6,12.86c.12,2.41,.01,.83,0,0h0Zm1.09,7.17c.75,2.31,.22,.79,0,0h0Zm16.59,20.77c-1.34-1.08-2.64-2.2-3.92-3.35-.42-.37-.82-.76-1.23-1.14-.32-.31-.77-.74-.93-.9-2.37-2.41-4.64-4.98-6.66-7.69-.33-.44-1.25-1.92-1.62-2.49-.4-.77-.78-1.55-1.14-2.35-.44-.98-.8-1.99-1.14-3.01-.2-.78-.35-1.57-.5-2.36-.22-1.19-.36-2.39-.47-3.59-.04-.41-.06-.83-.08-1.24,.01-2.65,.29-5.29,.68-7.91,.19-1.23,.42-2.46,.68-3.68,.09-.43,.19-.85,.29-1.28,.7-2.68,1.54-5.32,2.43-7.94,4.15-12.29,9.29-24.28,14.03-36.34,1.4-3.57,2.74-7.17,4.27-10.69,.74-1.72,1.58-3.39,2.44-5.06,.43-.84,.87-1.66,1.32-2.49,.1-.19,.18-.33,.25-.46,.02-.04,.04-.07,.06-.11,2.02-3.61,3.68-7.14,5.18-10.97,.07-.18,.17-.38,.27-.56-.06,.06-.13,.13-.21,.21,.08-.1,.17-.19,.25-.28,0,0,0,0,0,0,.01-.01,.02-.02,.03-.04-.01,.01-.02,.03-.04,.04-.01,.02-.02,.05-.04,.07,.61-.61,.53-.57,.24-.28,.79-.82,1.53-1.67,2.22-2.6,.06-.09,.11-.18,.18-.27,0,0,0,0,0,0,.03-.02,.07-.04,.1-.06,.09-.06,.18-.11,.27-.17,.54-.32,1.07-.69,1.55-1.13,.15-.14,.34-.28,.52-.41,.28-.1,.56-.2,.84-.3,.59-.21,1.17-.44,1.74-.7,.2-.11,.4-.21,.6-.32,2.86-1.78,3.35-2.04,1.5-.8-.03,0-.05,.01-.08,.02,.03,0,.05-.01,.08-.02-.06,.04-.11,.07-.17,.11,.19-.08,.56-.19,.89-.29,.49-.12,.97-.25,1.46-.37,1.46-.37,2.91-.8,4.36-1.23,.55-.16,3.09-.9,1.87-.62,2.61-.63,5.24-1.19,7.91-1.55,.74-.1,1.49-.16,2.23-.22,.1,0,.17-.01,.25-.02,1.83,0,3.65,.2,5.46,.47,1.06,.16,2.11,.38,3.16,.63-13.18,20.74-23.18,43.76-30.89,66.95-2.2,6.63-3.6,13.45-6.16,19.98-2.47,6.28-4.88,12.59-6.78,19.08-2.06,7.03-3.83,14.05-4.61,21.34-.02,.2-.04,.4-.06,.6-.97-.71-1.93-1.44-2.87-2.2Zm22.74-146.23c-.06,.02-.11,.03-.19,.05-1,.26-2.01,.51-3.01,.78-1.69,.46-3.4,.95-5.06,1.55-.65,.24-1.28,.55-1.88,.9-.14,.06-.81,.43-1.22,.6-1.34,.53-2.67,1.09-3.92,1.77-.72-.9-1.4-1.82-2.05-2.76-.04-.05-.06-.08-.09-.13-.28-.53-.54-1.07-.79-1.62-.09-.19-.16-.39-.24-.59-.07-.27-.18-.67-.24-.98,.05-1.21-.07-2.37-.18-3.54,0-.31-.01-1.18,0-1.55,.05-.78,.15-1.56,.24-2.34,.18-1.51,.47-3.01,.74-4.51,.04-.22,.08-.44,.12-.66,.08-.4,.26-1.31,.38-1.67,.22-.73,.49-1.46,.76-2.18,.41-.38,.82-.79,1.24-1.21-2.83,2.91,.34-.17,1.1-.79,.97-.8,2.01-1.52,3.06-2.22,.04-.03,.09-.06,.15-.1,.39-.22,.78-.43,1.17-.64,1.35-.71,2.75-1.33,4.16-1.92,1.23-.52,2.49-.96,3.75-1.4,.37-.13,.75-.24,1.13-.36,.21-.06,.42-.12,.56-.16,2.88-.77,5.81-1.33,8.76-1.78,2.72-.42,5.46-.7,8.2-.9,1.31-.1,2.63-.16,3.95-.21,.79-.01,1.59-.01,2.38-.01,5.87,.02,11.7,.53,17.5,1.44,3.67,.58,7.31,1.33,10.92,2.17,.08,.02,.13,.03,.19,.04,.11,.03,.23,.06,.38,.1,.9,.23,1.79,.47,2.69,.71,2.09,.56,4.17,1.18,6.24,1.8,7.44,2.25,14.75,4.9,22.01,7.66,7.02,2.66,14.05,5.34,20.94,8.35,3.15,1.38,6.26,2.85,9.34,4.39,1.55,.77,3.08,1.57,4.61,2.38,.37,.2,.74,.4,1.11,.6,.17,.1,1.84,1.03,2.22,1.25,8.46,4.88,16.51,10.46,24,16.72,1.73,1.45,3.42,2.95,5.08,4.48,.28,.26,1.39,1.33,1.71,1.64,.71,.7,1.4,1.42,2.04,2.18,2.93,3.5,5.81,7.03,8.39,10.8,.29,.43,.57,.88,.85,1.32,.25,.43,.8,1.36,.98,1.69,1.08,2,1.99,4.09,2.82,6.2,.56,1.44,1.24,2.81,1.76,4.27,.05,.14,.09,.24,.12,.34,.26,.98,.48,1.98,.68,2.98,.37,1.83,.62,3.68,.81,5.53,.1,.91,.16,1.83,.21,2.75,0,.44,0,.88,0,1.32-.03,1.89-.21,3.78-.5,5.64-.35,.2-.7,.39-.89,.48-1.11,.54-2.27,.98-3.44,1.38-.2,.06-.39,.11-.52,.14-.7,.17-1.42,.29-2.13,.42-.71,.12-1.43,.2-2.15,.28-.24,.03-.7,.05-1.06,.07-1.28-.04-2.56-.17-3.83-.34-.26-.04-.52-.08-.79-.13-.35-.09-.82-.2-1.08-.28-.63-.2-1.24-.44-1.85-.69-.19-.53-.36-1.07-.55-1.6-1.49-4.26-4.23-7.87-7.37-11.03-6.73-6.78-14.07-12.91-21.42-19.01-5.22-4.34-11.02-7.74-16.79-11.28-7-4.29-14.19-8.31-21.54-11.98-13.82-6.89-28.68-12.59-43.55-16.77-8.61-2.42-16.74-4.12-25.71-3.38-3.01,.25-5.97,.9-8.9,1.59-2.22,.52-4.39,1.16-6.53,1.93Zm-17.7-13.31c.07-.37,.14-.74,.21-1.11-.1,.51-.16,.86-.21,1.11Zm7.35-8.33c.4-.24,.62-.37,0,0h0Zm176.86,93.45c.35-.11,.26-.08,0,0h0Zm-143.78,102.84c-1.69-.72-3.35-1.52-5-2.34-.82-.41-1.63-.83-2.44-1.26-.24-.13-.49-.26-.73-.4-.13-.07-.3-.17-.53-.3-3.91-2.24-7.71-4.68-11.48-7.14,.16-3.77,.33-7.55,.65-11.31,.25-3,.66-5.99,1.2-8.96,.15-.83,.33-1.66,.51-2.49,.01-.06,.02-.09,.03-.15,.02-.07,.03-.12,.05-.2,.45-1.71,1-3.4,1.49-5.11,1.77-6.22,4.11-12.26,6.46-18.28,2.55-6.52,4.14-13.24,6.19-19.91,3.99-12.99,9.44-25.8,15.13-38.13,1.41-3.06,2.9-6.09,4.42-9.1,.83-1.64,1.69-3.27,2.56-4.9,.23-.43,.47-.86,.7-1.28,.12-.21,.76-1.35,.92-1.63,2.72-4.76,5.64-9.39,8.73-13.91,5.5,2.05,10.96,4.22,16.32,6.56,3.34,1.46,6.62,3.03,9.87,4.67,.97,.49,1.93,1,2.89,1.51-2.42,3.77-4.57,7.72-6.67,11.67-3.32,6.24-6.64,12.47-10.03,18.68-.74,1.36-1.48,2.72-2.22,4.07,1.8-3.3-.64,1.16-1.25,2.28-.4,.74-.78,1.5-1.15,2.26-1.42,2.86-2.62,5.83-3.76,8.81-2.48,6.43-4.53,13.02-6.9,19.49-4.76,13-9.35,25.98-13.59,39.16-3.1,9.63-6.19,19.33-8.48,29.19-1.3-.52-2.6-1.04-3.88-1.59Zm106.47,.79c4.97,.76,9.96,.88,14.95,.71-.07,.02-.13,.04-.2,.05-5.55,1.43-11.25,2.24-16.95,2.82-5.66,.59-11.38,1.07-17.06,1.38-.22,0-1.21,.02-1.59,.02-.23,0-.45-.02-.68-.03,.01-.05,.02-.09,.04-.14,.84-3.18,1.74-6.34,2.67-9.49,6.11,2.13,12.43,3.69,18.82,4.67Zm-46.99,8.25c-.17,.4-.35,.8-.54,1.2-.06,.09-.69,1.3-.9,1.63-.49,.78-1.05,1.52-1.61,2.25-.05,.07-.08,.11-.13,.17-.09,.07-.17,.14-.28,.23-.41,.35-.84,.67-1.28,.98-.59,.29-2.11,.83-2.59,1.03-.79,.16-1.59,.3-2.39,.4-.19,.03-.39,.04-.58,.06-.48,.02-1.24,.04-1.6,.03-1.31-.05-2.62-.22-3.92-.41-.59-.09-1.17-.21-1.75-.32-3.17-.88-6.22-2.22-9.28-3.42-2.29-.9-4.58-1.8-6.87-2.7,.13-.67,.24-1.34,.38-2.01,.23-1.09,.48-2.18,.73-3.27,.04-.15,.38-1.52,.46-1.84,.23-.9,.48-1.79,.72-2.68,1.79-6.55,3.9-13,5.99-19.46,4.16-12.89,8.51-25.65,13.28-38.32,2.33-6.17,4.31-12.47,6.59-18.66,1.11-3.02,2.32-6,3.66-8.93,.43-.94,.89-1.87,1.36-2.79,.38-.7,1.41-2.63,1.77-3.3,.44-.81,.89-1.63,1.33-2.45,3.24-5.95,6.54-11.88,9.65-17.9,.69-1.34,1.4-2.67,2.11-4,.06-.11,.11-.2,.15-.29,.03-.05,.04-.08,.07-.13,.44-.77,.9-1.54,1.35-2.3,.83-1.39,1.71-2.75,2.64-4.08,1.53,1.01,3.04,2.04,4.52,3.11,7.17,5.18,13.94,11.33,20.4,17.35,.08,.07,.15,.14,.23,.22-.07,.33-.13,.67-.17,1.01-.09,.73-.19,1.45-.32,2.18-.03,.2-.11,.54-.18,.87-.34,1.22-.72,2.42-1.13,3.62-1.15,3.36-2.57,6.62-4.01,9.86-2.82,6.4-5.37,12.93-8.5,19.18-3.51,7-7.54,13.72-11.04,20.72-3.42,6.85-6.11,14.01-8.53,21.25-2.4,7.17-4.48,14.41-6.43,21.71-.92,3.47-1.98,6.89-3.38,10.2Zm59.75-30.59c2.3-.09,.97-.02,0,0h0Zm-7.71-17.31c7.48,2.31,15.36,2.91,23.15,2.99,7.18,.07,14.53,0,21.62-1.2,3.88-.66,7.65-1.73,11.42-2.84,2.12-.63,4.09-1.49,6.06-2.41-.67,1.16-1.35,2.31-2.04,3.45-.2,.32-.4,.64-.6,.96-1.5,.94-2.96,1.92-4.44,2.9-.28,.19-1.36,.85-1.84,1.16-.69,.38-1.39,.74-2.1,1.09-4.09,1.98-7.88,4.44-12.1,6.19-.79,.33-1.59,.61-2.39,.88-.25,.08-.5,.16-.75,.24-.13,.03-.28,.08-.49,.13-2.21,.59-4.46,1.07-6.71,1.5-4.48,.85-9.02,1.38-13.56,1.77-1.93,.17-3.87,.29-5.8,.4-.66,.04-1.32,.07-1.97,.1-.04,0-.08,0-.12,0-3.1-.01-6.19-.31-9.25-.73-1.87-.26-3.72-.6-5.57-.98-.29-.06-1-.23-1.55-.36-.75-.2-1.51-.4-2.26-.62-1.7-.49-3.38-1.06-5.05-1.66,2.28-5.56,4.93-10.93,7.75-16.24,2.82,1.21,5.66,2.36,8.6,3.27Zm96.1-123.34c.28,.78,.54,1.57,.8,2.35,.05,.17,.17,.54,.27,.89,.45,1.66,.84,3.33,1.19,5.02,.65,3.14,1.05,6.33,1.28,9.52,.01,.18,.03,.56,.04,.91,0,.64-.01,1.28-.03,1.91-.06,2.04-.23,4.08-.44,6.12-.37,3.5-.98,6.96-1.68,10.4-.27,1.34-.58,2.67-.89,3.99-.1,.42-.31,1.28-.39,1.56-.29,1.14-.6,2.27-.9,3.41-1.92,7.16-3.73,14.43-6.21,21.41-.3,.85-.61,1.69-.94,2.52-.94,1.5-2,2.93-3.09,4.33-1.3,1.67-2.69,3.27-4.1,4.84-.71,.79-1.44,1.56-2.16,2.33-.4,.4-.8,.79-1.2,1.19-2.92,2.87-5.98,5.62-9.18,8.18-.46,.37-.94,.73-1.41,1.08-.34,.22-.8,.52-1.1,.67-2.8,1.41-5.71,2.62-8.59,3.88-2.6,1.14-5.15,2.76-7.84,3.64-.22,.07-.44,.14-.65,.2,.27-.09-1.42,.4-1.75,.49-1.69,.44-3.4,.81-5.11,1.14-2.77,.54-5.57,.87-8.38,1.01-1.23,.06-2.45,.1-3.68,.15-.48,.01-1.35,.04-1.57,.04-.93,.01-1.86,.01-2.79,0-3.1-.01-6.19-.15-9.28-.41-1.53-.13-3.05-.32-4.57-.53-.91-.13-1.8-.28-2.7-.44-.13-.02-.23-.04-.33-.06-.07-.02-.11-.03-.19-.06-2.19-.64-4.33-1.45-6.43-2.32,1.3-2.99,2.48-6.04,3.81-9.02,1.38-3.12,2.79-6.25,4.06-9.43,13.68,5.72,29.96,2.51,41.82-5.78,12.52-8.75,21.77-21.46,28.05-35.22,6-13.15,8.95-27.63,11.68-41.75,.42-2.19,.73-4.4,.95-6.62,1.4,2.74,2.59,5.58,3.65,8.47Zm-32.69,9.49c-.41-1.33-.21-.75,0,0h0Zm-13.98-25.16c1.4,1.96,2.75,3.95,4.07,5.96,.68,1.03,1.34,2.08,2,3.13,.24,.38,.47,.76,.7,1.14,1.96,3.34,3.76,6.77,5.34,10.3,.63,1.41,1.2,2.85,1.72,4.3,.11,.32,.21,.64,.32,.97,.01,.06,.03,.11,.04,.16,.15,.63,.26,1.27,.35,1.91-.02,.13-.02,.26-.05,.39-.19,.99-.19,1.96-.07,2.91-1.76,6.18-3.95,12.24-6.72,18.05-.03,.06-.06,.12-.09,.18-.36-1.29-.75-2.59-1.18-3.87-4.07-12.05-11.75-23.46-20.73-32.41-10.69-10.65-22.67-19.61-35.77-27.09-13.52-7.71-27.66-13.61-42.18-19.15-21.7-8.27-44.51-15.57-67.96-15.41-8.37,.06-16.73,.65-24.89,2.48,2.09-3.95,4.12-7.92,5.81-12.04,.44-.4,.92-.84,1.17-1.04,.47-.38,.95-.73,1.45-1.07,.28-.14,1.91-1.12,2.48-1.39,1.27-.62,2.59-1.15,3.92-1.65,.49-.18,2.03-.66,2.62-.85,.79-.2,1.58-.39,2.38-.57,2.76-.61,5.56-1.02,8.37-1.34,2.63-.3,5.26-.47,7.9-.57,.03,0,.07,0,.11,0,.49,0,.97-.01,1.46-.02,1.51-.01,3.01,.01,4.51,.05,4.94,.11,9.87,.46,14.78,.92,3.57,.33,7.12,.92,10.65,1.57,1.82,.33,3.64,.72,5.45,1.12,.52,.11,1.03,.24,1.55,.36,0,.01,2.21,.56,2.63,.67,7.49,1.98,14.85,4.45,22.14,7.09,13.62,4.93,27.26,10.16,40.3,16.47,2.24,1.08,4.45,2.22,6.64,3.38,.47,.25,.93,.5,1.39,.75,.07,.04,.13,.08,.22,.13,1.2,.68,2.38,1.38,3.56,2.09,4.66,2.81,9.15,5.91,13.42,9.29,1.89,1.5,3.71,3.08,5.49,4.71,.09,.09,.19,.18,.28,.26,.3,.29,.79,.76,.99,.96,.93,.94,1.82,1.92,2.7,2.9,3.88,4.34,7.34,9.12,10.72,13.85Zm-179.13-58.4s0,0,0,0c.06-.06,.11-.11,.17-.17-.06,.07-.11,.11-.17,.17Zm30.81-8.18c.75-.02,1.49-.03,0,0h0Zm147.28,12.38c.52,.5,1.06,1.04,0,0h0Zm-150.48-35.47c1.39-1.09,2.8-2.15,4.24-3.17,1.35-.96,2.76-1.85,4.18-2.7,.26-.15,.5-.33,.75-.51,.43-.26,1.17-.7,1.5-.86,1.18-.58,2.42-1.04,3.66-1.46,.02,0,.03,0,.05-.01,.68-.18,1.37-.32,2.06-.46,3.05-.63,6.17-.9,9.28-1.09,.73-.04,1.46-.07,2.19-.1,.21,0,.6-.02,.94-.03,1.12-.02,2.23-.04,3.35-.06,1.77-.03,3.54-.07,5.3-.11-.01,0,.06,.02,.3,.03,.41,.02,.82,.05,1.24,.09,9.17,.76,18.32,3.1,27.24,5.24,.18,.04,.47,.11,.75,.18,.38,.1,.76,.19,1.15,.29,1.44,.36,2.88,.73,4.31,1.1,3.16,.82,6.32,1.68,9.46,2.56,5.9,1.66,11.77,3.43,17.59,5.36,6.47,2.14,12.61,5.22,18.65,8.36,1.19,.62,2.36,1.25,3.53,1.9,.2,.11,.39,.22,.52,.29,.64,.36,1.27,.74,1.91,1.11,2.58,1.51,5.12,3.1,7.61,4.75,4.11,2.7,8.08,5.62,11.89,8.73,1.55,1.26,3.06,2.58,4.54,3.92,.62,.56,1.23,1.13,1.83,1.7,.15,.15,.3,.3,.45,.45,3.51,3.56,6.72,7.41,9.59,11.51,.55,.79,1.09,1.6,1.65,2.38,.23,.44,.46,.88,.68,1.33,.85,1.72,1.6,3.49,2.33,5.26,.83,2.05,1.58,4.13,2.29,6.23,.36,1.06,.69,2.13,1.02,3.2,.23,.84,.45,1.68,.67,2.52,.69,2.69,1.25,5.4,1.72,8.14-2.82-3.97-5.76-7.85-8.77-11.62-18.16-22.83-45.95-35.22-72.44-45.58-24.02-9.4-48.39-17.5-74.35-18.73-4.92-.23-9.89-.31-14.85-.11Zm-103.4,30.57c-.13-1.53,.04-.95,0,0h0Zm-52.6-28.13c.73,.39,1.65,.94,0,0h0ZM239.27,67.91c-.34-.19-.25-.14,0,0h0ZM145.65,29.2c.48,.12,.74,.18,0,0h0Zm-75.1-2.03c-1.72,.52-.75,.22,0,0h0ZM335.92,226.74c-30.38-7.65-61.17-12.96-92.08-17.89-26.43-4.21-52.9-8.27-78.96-14.44-.74-.17-1.47-.35-2.21-.53-.06-.02-.11-.03-.19-.05-1.56-.39-3.12-.79-4.68-1.19-3.54-.92-7.08-1.89-10.6-2.88-6.99-1.98-13.94-4.14-20.82-6.48-13.66-4.66-27.03-10.22-39.8-16.96-.76-.4-1.52-.81-2.28-1.23-.11-.06-.18-.1-.26-.14-.01,0-.02-.01-.03-.02-1.51-.85-3-1.72-4.48-2.61-3.22-1.92-6.38-3.95-9.49-6.05-6.04-4.08-11.81-8.54-17.33-13.3-1.34-1.16-2.65-2.35-3.96-3.54-.66-.6-1.3-1.21-1.95-1.83-.17-.16-.29-.27-.39-.37,0,0-.01-.01-.02-.02-2.66-2.63-5.24-5.36-7.71-8.17-1.69-1.94-3.26-3.99-4.74-6.09-.69-.98-1.34-1.99-1.98-3.01-.38-.66-.74-1.33-1.1-2-1.18-2.2-2.22-4.48-3.17-6.8-.47-1.15-.9-2.32-1.32-3.49-.21-.58-.4-1.17-.59-1.76-.04-.13-.07-.22-.11-.32-1.35-4.87-2.15-9.88-2.49-14.91-.03-.51-.06-1.02-.08-1.53,0-1.14,.02-2.27,.06-3.41,.1-2.65,.36-5.29,.74-7.91,.17-1.21,.39-2.41,.62-3.61,.09-.47,.38-1.7,.55-2.4,.59-2.14,1.29-4.25,2.06-6.33,.86-2.31,1.87-4.56,2.96-6.76,.24-.48,.48-.95,.73-1.42,.66-1.14,1.37-2.26,2.09-3.36,1.38-2.1,2.89-4.1,4.48-6.04,.8-.98,1.65-1.93,2.5-2.86,.06-.06,.12-.14,.2-.21,.43-.42,.86-.85,1.3-1.26,1.9-1.79,3.92-3.46,6-5.03,1.06-.8,2.16-1.56,3.26-2.31,.56-.38,1.13-.74,1.69-1.1,.06-.04,.1-.07,.16-.1,3.74-2.17,7.65-4.01,11.67-5.6,1.97-.78,3.98-1.47,6-2.12,.24-.08,.48-.15,.72-.22,0,0,0,0,0,0,1.21-.33,2.42-.64,3.64-.92,4.43-1.05,8.93-1.78,13.45-2.28,2.22-.25,4.45-.42,6.69-.55,.98-.06,1.97-.1,2.95-.13,.67,0,1.33-.01,2-.02,4.88,0,9.76,.25,14.62,.68,10.25,.91,20.4,2.74,30.4,5.11,.03,0,.08,.02,.12,.03,.4,.1,.8,.2,1.2,.3,1.25,.32,2.49,.65,3.74,.99,2.72,.73,5.43,1.52,8.12,2.33,5.28,1.59,10.51,3.34,15.7,5.19,21.35,7.62,41.96,17.26,61.9,28.02,1.2,.65,2.39,1.3,3.58,1.95,.35,.19,.7,.39,1.05,.58,.14,.08,.27,.15,.37,.2,2.55,1.43,5.08,2.88,7.6,4.35,4.79,2.78,9.53,5.64,14.23,8.56,9.01,5.59,17.87,11.43,26.57,17.5,24.44,17.06,45.95,37.59,67.41,58.17,4.92,4.72,9.88,9.41,14.78,14.15,.46,.44,.91,.89,1.37,1.33,.03,.03,.05,.05,.08,.08,.12,.11,.27,.26,.49,.48,1.36,1.34,2.72,2.68,4.08,4.03,2.72,2.69,5.42,5.4,8.12,8.11,7.19,7.22,14.68,14.23,21.11,22.14,3.52,4.34,6.99,8.73,10.61,12.99-4.56-1.9-9.12-3.82-13.67-5.73-17.74-17.39-35.22-35.06-53.48-51.91-16.76-15.47-34.68-29.49-52.88-43.21-25.09-18.93-51.09-36.56-78.97-51.16-28.35-14.84-59.04-23.93-90.48-29.46-8.38-1.48-16.9-3.09-25.44-3.02-8.96,.08-17.32,1.42-25.9,3.96-16.08,4.77-30.89,16.26-36.55,32.43-4.35,11.2-4.63,23.04-.23,34.25,3.84,9.79,11.29,17.79,19.1,24.58,6.78,5.89,14.38,10.76,21.96,15.52,12.59,7.9,25.7,14.82,39.44,20.5,28.51,11.77,58.68,18.07,89.06,22.68,30.07,4.57,60.02,9.96,89.8,16.12,5.29,1.09,10.57,2.22,15.85,3.37,2.6,.57,5.2,1.14,7.8,1.72,1.2,.27,2.4,.54,3.6,.82,.22,.05,.44,.1,.66,.16-.06-.01,1.59,.39,1.91,.47,11.36,2.9,22.51,6.61,33.5,10.68,18.16,6.73,35.87,14.57,53.77,21.93-1.11,1.88-2.19,3.77-3.17,5.7-25.08-9.42-50.63-17.54-76.62-24.09ZM101.37,59.09c1.43,.01,2.87,.09,4.29,.2,7.06,.52,14.14,1.91,21.1,3.15,3.68,.66,7.35,1.38,11.01,2.14,1.83,.38,3.65,.78,5.47,1.19,.91,.21,1.82,.42,2.73,.63,.28,.07,1.4,.34,2.1,.51,14.88,3.73,29.48,8.57,43.56,14.65,7.16,3.09,14.12,6.59,21,10.26,1.45,.77,2.9,1.57,4.34,2.36,.4,.22,.88,.49,1.05,.58,.8,.45,1.61,.91,2.41,1.37,3.46,1.98,6.89,4.03,10.3,6.1,13.06,7.96,25.69,16.6,38.07,25.56,20.16,14.6,40.11,29.72,58.77,46.23,7.46,6.6,14.71,13.44,21.88,20.36-.79-.24-1.58-.5-2.37-.73-15.38-4.6-31.19-7.77-46.9-11.01-14.98-3.09-30-5.97-45.05-8.66-14.88-2.66-29.8-5.13-44.74-7.4-7.3-1.11-14.6-2.2-21.87-3.55-3.53-.66-7.05-1.38-10.55-2.14-1.76-.38-3.52-.78-5.28-1.19-.88-.2-1.76-.41-2.64-.62-.01,0-.02,0-.03,0-.44-.11-.89-.22-1.33-.33-14.63-3.7-29.01-8.4-42.91-14.26-6.89-2.9-13.63-6.14-20.21-9.68-.19-.1-.7-.38-1.1-.6-.54-.31-1.08-.61-1.61-.92-1.54-.89-3.06-1.8-4.57-2.73-2.06-1.26-4.1-2.56-6.14-3.84-5.01-3.16-9.95-6.43-14.67-10.01-2.49-1.89-4.89-3.88-7.2-5.99-.14-.13-.34-.32-.54-.51-.26-.27-.53-.53-.79-.81-1.11-1.16-2.17-2.37-3.19-3.61-.89-1.08-1.72-2.22-2.52-3.37-.17-.24-.32-.49-.48-.73-.24-.4-.51-.87-.66-1.14-.64-1.21-1.18-2.46-1.68-3.73-.12-.31-.22-.63-.33-.94-.12-.4-.24-.83-.3-1.1-.3-1.35-.48-2.73-.6-4.12,0-.02,0-.03,0-.04,.01-.78,.06-1.56,.13-2.34,.1-1.15,.29-2.3,.52-3.43,.09-.36,.19-.75,.26-.99,.31-1.02,.68-2.01,1.07-3,.44-1.25,.93-2.47,1.49-3.67,.06-.14,.16-.33,.26-.52,.14-.23,.28-.47,.42-.7,.68-1.08,1.45-2.1,2.25-3.1,.4-.5,.82-.98,1.24-1.45,.02-.02,.02-.03,.04-.04,.03-.03,.05-.05,.08-.08,1.86-1.78,3.92-3.33,6.05-4.76,.11-.07,.25-.16,.41-.26,.32-.18,.63-.36,.95-.53,1.35-.73,2.74-1.38,4.14-2,1.21-.53,2.45-1.01,3.69-1.46,.52-.19,2.33-.75,2.87-.93,2.35-.61,4.73-1.09,7.13-1.47,2.57-.41,5.17-.65,7.77-.79,.02,0,.03,0,.05,0,.45,0,.91,0,1.36,0Zm-.84-.02c.77-.02,1.61-.03,0,0h0Zm423.29,274.88c0-.39,0-.78,0-1.18,.03-1.5,.12-3,.26-4.5,.23-2.48,.64-4.94,1.17-7.36,.07-.26,.14-.52,.21-.78,.24-.86,.51-1.71,.79-2.56,.37-1.11,.78-2.2,1.21-3.28,.53-1.34,.77-2.73,.77-4.11,.22-.47,.44-.94,.67-1.41,2.83-5.65,5.28-11.48,8.02-17.17,.58-1.21,1.19-2.41,1.8-3.62,0,0,0-.01,.01-.02,.8-1.37,1.64-2.72,2.5-4.06,2.37-3.68,4.92-7.25,7.58-10.72,1.42-1.86,2.9-3.68,4.41-5.46,.67-.8,1.37-1.58,2.06-2.36,.3-.33,1.1-1.18,1.6-1.71,1.09-1.07,2.21-2.1,3.37-3.07-.33,.79-.65,1.59-.99,2.37-3.07,7.09-7.14,13.79-10.61,20.69-3.41,6.78-6.46,13.89-9.25,20.95-2.97,7.51-4.05,15.85-3.84,23.87,.02,.44,.06,.89,.11,1.33,0,1.41,.06,2.81,.28,4.2,.39,2.51,1.29,5.08,2.36,7.39,1.92,4.18,4.73,8.03,7.78,11.45,.24,.27,.5,.52,.76,.78-.21,.53-.42,1.07-.63,1.6-.29,.73-.58,1.47-.86,2.2-.49,1.13-.32,.95,.52-.55-.31,.55-.62,1.09-.93,1.64-1.67,2.96-3.22,5.92-4.68,8.91-.62-.57-1.62-1.5-1.93-1.78-.57-.58-1.12-1.17-1.67-1.77-1.64-1.78-3.16-3.68-4.59-5.63-.67-.92-1.31-1.87-1.93-2.83-.04-.07-.09-.15-.15-.23-.1-.17-.2-.34-.29-.51-1.01-1.82-1.9-3.7-2.7-5.61-.38-.91-.73-1.84-1.06-2.78-.11-.31-.29-.87-.44-1.37-.85-3.24-1.39-6.55-1.64-9.89-.02-.26-.04-.66-.06-1.05Z"/>
  </g>
</svg>